<?xml version="1.0" encoding="UTF-8"?>
<svg width="256" height="256" viewBox="0 0 256 256" fill="none" xmlns="http://www.w3.org/2000/svg">
  <rect width="256" height="256" rx="64" fill="#4db6ac"/>
  <path d="M70 110.5C70 88.685 87.685 71 109.5 71H146.5C168.315 71 186 88.685 186 110.5V159C186 180.815 168.315 198.5 146.5 198.5H109.5C87.685 198.5 70 180.815 70 159V110.5Z" fill="white"/>
  <path d="M94 118C94 106.954 102.954 98 114 98H142C153.046 98 162 106.954 162 118V142C162 153.046 153.046 162 142 162H114C102.954 162 94 153.046 94 142V118Z" fill="#4db6ac"/>
  <circle cx="128" cy="130" r="16" fill="white"/>
  <path d="M206 94L186 114V142L206 162" stroke="#9c27b0" stroke-width="8" stroke-linecap="round" stroke-linejoin="round"/>
  <path d="M50 94L70 114V142L50 162" stroke="#9c27b0" stroke-width="8" stroke-linecap="round" stroke-linejoin="round"/>
</svg>